<?xml version="1.0" encoding="UTF-8"?>
<!DOCTYPE svg PUBLIC "-//W3C//DTD SVG 1.1//EN" "http://www.w3.org/Graphics/SVG/1.1/DTD/svg11.dtd">
<svg xmlns="http://www.w3.org/2000/svg" version="1.1" width="512px" height="512px" style="shape-rendering:geometricPrecision; text-rendering:geometricPrecision; image-rendering:optimizeQuality; fill-rule:evenodd; clip-rule:evenodd" xmlns:xlink="http://www.w3.org/1999/xlink">
<g><path style="opacity:0.989" fill="#000000" d="M 101.5,47.5 C 149.501,47.3333 197.501,47.5 245.5,48C 246.833,48.6667 248.167,49.3333 249.5,50C 288,88.5 326.5,127 365,165.5C 365.667,166.833 366.333,168.167 367,169.5C 367.667,194.833 367.667,220.167 367,245.5C 362.527,254.482 355.36,257.649 345.5,255C 341,253.167 337.833,250 336,245.5C 335.5,227.503 335.333,209.503 335.5,191.5C 310.831,191.667 286.164,191.5 261.5,191C 241.667,185.833 229.167,173.333 224,153.5C 223.5,128.836 223.333,104.169 223.5,79.5C 186.165,79.3333 148.832,79.5 111.5,80C 104.434,80.4469 99.6008,83.9469 97,90.5C 95.8437,145.464 95.3437,200.464 95.5,255.5C 95.3437,310.536 95.8437,365.536 97,420.5C 99.6008,427.053 104.434,430.553 111.5,431C 182.536,431.984 253.536,431.65 324.5,430C 331.053,427.399 334.553,422.566 335,415.5C 335.333,397.5 335.667,379.5 336,361.5C 338.807,354.513 343.973,351.18 351.5,351.5C 359.027,351.18 364.193,354.513 367,361.5C 367.958,384.217 367.624,406.884 366,429.5C 359.892,447.275 347.726,458.441 329.5,463C 252.123,463.988 174.789,463.655 97.5,462C 79.7255,455.892 68.5588,443.726 64,425.5C 63.3333,312.167 63.3333,198.833 64,85.5C 69.3488,65.6518 81.8488,52.9852 101.5,47.5 Z M 255.5,103.5 C 274.299,121.798 292.965,140.298 311.5,159C 298.167,159.667 284.833,159.667 271.5,159C 262.333,157.833 257.167,152.667 256,143.5C 255.5,130.171 255.333,116.837 255.5,103.5 Z"/></g>
<g><path style="opacity:0.979" fill="#000000" d="M 393.5,223.5 C 399.105,222.908 404.439,223.741 409.5,226C 432,248.5 454.5,271 477,293.5C 480.333,300.167 480.333,306.833 477,313.5C 454.5,336 432,358.5 409.5,381C 391.133,387.294 382.633,380.794 384,361.5C 396.436,347.061 409.603,333.228 423.5,320C 365.5,319.667 307.5,319.333 249.5,319C 240.518,314.527 237.351,307.36 240,297.5C 241.833,293 245,289.833 249.5,288C 307.5,287.667 365.5,287.333 423.5,287C 409.603,273.772 396.436,259.939 384,245.5C 381.486,235.542 384.653,228.208 393.5,223.5 Z"/></g>
</svg>
